<svg width="32" height="26" viewBox="0 0 32 26" fill="none" xmlns="http://www.w3.org/2000/svg">
<g filter="url(#filter0_ddd_1_425)">
<path fill-rule="evenodd" clip-rule="evenodd" d="M13.4961 4.13176C13.1866 3.9549 12.8064 3.95617 12.4981 4.13509C12.1898 4.31401 12 4.64353 12 5V13C12 13.3565 12.1898 13.686 12.4981 13.8649C12.8064 14.0438 13.1866 14.0451 13.4961 13.8682L20.4961 9.86824C20.8077 9.6902 21 9.35886 21 9C21 8.64114 20.8077 8.3098 20.4961 8.13176L13.4961 4.13176ZM17.9844 9L14 11.2768V6.72318L17.9844 9Z" fill="#0F0F0F"/>
<path fill-rule="evenodd" clip-rule="evenodd" d="M4 9C4 5.25027 4 3.3754 4.95491 2.06107C5.26331 1.6366 5.6366 1.26331 6.06107 0.954915C7.3754 0 9.25027 0 13 0H19C22.7497 0 24.6246 0 25.9389 0.954915C26.3634 1.26331 26.7367 1.6366 27.0451 2.06107C28 3.3754 28 5.25027 28 9C28 12.7497 28 14.6246 27.0451 15.9389C26.7367 16.3634 26.3634 16.7367 25.9389 17.0451C24.6246 18 22.7497 18 19 18H13C9.25027 18 7.3754 18 6.06107 17.0451C5.6366 16.7367 5.26331 16.3634 4.95491 15.9389C4 14.6246 4 12.7497 4 9ZM13 2H19C20.9194 2 22.1983 2.00275 23.1673 2.10773C24.0989 2.20866 24.504 2.38448 24.7634 2.57295C25.018 2.75799 25.242 2.98196 25.4271 3.23664C25.6155 3.49605 25.7913 3.90113 25.8923 4.83269C25.9973 5.80167 26 7.08058 26 9C26 10.9194 25.9973 12.1983 25.8923 13.1673C25.7913 14.0989 25.6155 14.504 25.4271 14.7634C25.242 15.018 25.018 15.242 24.7634 15.4271C24.504 15.6155 24.0989 15.7913 23.1673 15.8923C22.1983 15.9973 20.9194 16 19 16H13C11.0806 16 9.80167 15.9973 8.83269 15.8923C7.90113 15.7913 7.49605 15.6155 7.23664 15.4271C6.98196 15.242 6.75799 15.018 6.57295 14.7634C6.38448 14.504 6.20866 14.0989 6.10773 13.1673C6.00275 12.1983 6 10.9194 6 9C6 7.08058 6.00275 5.80167 6.10773 4.83269C6.20866 3.90113 6.38448 3.49605 6.57295 3.23664C6.75799 2.98196 6.98196 2.75799 7.23664 2.57295C7.49605 2.38448 7.90113 2.20866 8.83269 2.10773C9.80167 2.00275 11.0806 2 13 2Z" fill="#0F0F0F"/>
</g>
<defs>
<filter id="filter0_ddd_1_425" x="0" y="0" width="32" height="26" filterUnits="userSpaceOnUse" color-interpolation-filters="sRGB">
<feFlood flood-opacity="0" result="BackgroundImageFix"/>
<feColorMatrix in="SourceAlpha" type="matrix" values="0 0 0 0 0 0 0 0 0 0 0 0 0 0 0 0 0 0 127 0" result="hardAlpha"/>
<feOffset dy="4"/>
<feGaussianBlur stdDeviation="2"/>
<feComposite in2="hardAlpha" operator="out"/>
<feColorMatrix type="matrix" values="0 0 0 0 0 0 0 0 0 0 0 0 0 0 0 0 0 0 0.25 0"/>
<feBlend mode="normal" in2="BackgroundImageFix" result="effect1_dropShadow_1_425"/>
<feColorMatrix in="SourceAlpha" type="matrix" values="0 0 0 0 0 0 0 0 0 0 0 0 0 0 0 0 0 0 127 0" result="hardAlpha"/>
<feOffset dy="4"/>
<feGaussianBlur stdDeviation="2"/>
<feComposite in2="hardAlpha" operator="out"/>
<feColorMatrix type="matrix" values="0 0 0 0 0 0 0 0 0 0 0 0 0 0 0 0 0 0 0.25 0"/>
<feBlend mode="normal" in2="effect1_dropShadow_1_425" result="effect2_dropShadow_1_425"/>
<feColorMatrix in="SourceAlpha" type="matrix" values="0 0 0 0 0 0 0 0 0 0 0 0 0 0 0 0 0 0 127 0" result="hardAlpha"/>
<feOffset dy="4"/>
<feGaussianBlur stdDeviation="2"/>
<feComposite in2="hardAlpha" operator="out"/>
<feColorMatrix type="matrix" values="0 0 0 0 0 0 0 0 0 0 0 0 0 0 0 0 0 0 0.25 0"/>
<feBlend mode="normal" in2="effect2_dropShadow_1_425" result="effect3_dropShadow_1_425"/>
<feBlend mode="normal" in="SourceGraphic" in2="effect3_dropShadow_1_425" result="shape"/>
</filter>
</defs>
</svg>
